<svg width="13" height="13" viewBox="0 0 13 13" fill="none" xmlns="http://www.w3.org/2000/svg">
<path d="M8.57475 5.95671C8.44973 5.95671 8.32751 5.99378 8.22356 6.06324C8.11961 6.1327 8.03859 6.23143 7.99074 6.34693C7.9429 6.46244 7.93038 6.58954 7.95477 6.71216C7.97916 6.83478 8.03936 6.94741 8.12777 7.03582C8.21617 7.12422 8.32881 7.18442 8.45143 7.20882C8.57405 7.23321 8.70115 7.22069 8.81665 7.17284C8.93216 7.125 9.03088 7.04398 9.10034 6.94003C9.1698 6.83607 9.20687 6.71386 9.20687 6.58884C9.20687 6.42119 9.14028 6.2604 9.02173 6.14186C8.90318 6.02331 8.7424 5.95671 8.57475 5.95671ZM5.05392 6.58884C5.05392 6.46379 5.01683 6.34155 4.94735 6.23759C4.87786 6.13363 4.77911 6.05261 4.66357 6.00478C4.54803 5.95695 4.4209 5.94446 4.29827 5.9689C4.17563 5.99333 4.063 6.05359 3.97462 6.14205C3.88624 6.23051 3.82608 6.34319 3.80175 6.46585C3.77742 6.5885 3.79001 6.71562 3.83794 6.83112C3.88587 6.94661 3.96697 7.0453 4.071 7.11469C4.17502 7.18409 4.29729 7.22107 4.42233 7.22096C4.58989 7.22082 4.75053 7.15416 4.86896 7.03562C4.98739 6.91709 5.05392 6.75639 5.05392 6.58884ZM7.85054 8.34384C7.67817 8.5292 7.46951 8.67711 7.23752 8.77837C7.00554 8.87963 6.75519 8.93207 6.50207 8.93242C6.24895 8.93278 5.99847 8.88105 5.7662 8.78044C5.53393 8.67983 5.32484 8.53251 5.15196 8.34763C5.06174 8.23579 4.93079 8.16437 4.78791 8.14908C4.64504 8.13379 4.50194 8.17589 4.3901 8.26611C4.27826 8.35633 4.20685 8.48728 4.19156 8.63015C4.17627 8.77303 4.21836 8.91612 4.30858 9.02796C4.58291 9.33853 4.92012 9.58724 5.29786 9.75758C5.67561 9.92792 6.08525 10.016 6.49962 10.016C6.914 10.016 7.32364 9.92792 7.70139 9.75758C8.07913 9.58724 8.41634 9.33853 8.69067 9.02796C8.77731 8.91622 8.81683 8.77504 8.80078 8.63456C8.78473 8.49408 8.71439 8.36544 8.60478 8.27612C8.49516 8.1868 8.35497 8.14389 8.21414 8.15654C8.07332 8.16919 7.94302 8.23641 7.85108 8.34384H7.85054ZM6.50017 0.272461C5.26815 0.272461 4.06381 0.637795 3.03943 1.32226C2.01504 2.00673 1.21664 2.9796 0.745166 4.11783C0.273695 5.25606 0.150337 6.50854 0.390691 7.71688C0.631044 8.92522 1.22432 10.0351 2.09548 10.9063C2.96664 11.7775 4.07658 12.3707 5.28492 12.6111C6.49326 12.8515 7.74573 12.7281 8.88396 12.2566C10.0222 11.7852 10.9951 10.9867 11.6795 9.96237C12.364 8.93799 12.7293 7.73364 12.7293 6.50163C12.7275 4.85012 12.0706 3.26679 10.9028 2.099C9.735 0.931208 8.15167 0.274325 6.50017 0.272461ZM6.50017 11.6475C5.48242 11.6475 4.48752 11.3457 3.64129 10.7802C2.79507 10.2148 2.13551 9.41113 1.74604 8.47085C1.35656 7.53057 1.25466 6.49592 1.45321 5.49773C1.65176 4.49953 2.14185 3.58263 2.86151 2.86297C3.58117 2.14332 4.49807 1.65322 5.49626 1.45467C6.49446 1.25612 7.52911 1.35802 8.46939 1.7475C9.40967 2.13697 10.2133 2.79653 10.7788 3.64276C11.3442 4.48898 11.646 5.48388 11.646 6.50163C11.6446 7.86595 11.102 9.17398 10.1372 10.1387C9.17252 11.1034 7.86449 11.646 6.50017 11.6475Z" fill="#8E8E8E"/>
</svg>
